# xmcd
#
# Track frame offsets:
#	150
#	11782
#	36770
#	58641
#	77663
#	93041
#	117960
#	146404
#
# Disc length: 2244 seconds
#
# Revision: 2
# Processed by: cddbd v1.5.2PL0 Copyright (c) Steve Scherf et al.
# Submitted via: EZCDDA 4.3.2
#
DISCID=5c08c208
DTITLE=Svartnatt - Vargol Har Kommit
DYEAR=1900
DGENRE=
TTITLE0=Vargold
TTITLE1=Vinterkyla
TTITLE2=Domedag
TTITLE3=Segerflask
TTITLE4=Vrede Fran Forr
TTITLE5=Kung Vinter
TTITLE6=Kristet Hat
TTITLE7=Svartnatt
EXTD=
EXTT0=
EXTT1=
EXTT2=
EXTT3=
EXTT4=
EXTT5=
EXTT6=
EXTT7=
PLAYORDER=
